<svg width="73" height="73" viewBox="0 0 73 73" fill="none" xmlns="http://www.w3.org/2000/svg">
<g filter="url(#filter0_d_169_3694)">
<circle cx="36.5" cy="32.5" r="32.5" fill="#2A4368"/>
</g>
<path d="M48.1071 25.5357V28.3446C48.1071 30.1785 46.9464 31.3393 45.1125 31.3393H41.1428V23.2259C41.1428 21.9375 42.1991 20.8928 43.4875 20.8928C44.7526 20.9044 45.9134 21.4151 46.7491 22.2509C47.5848 23.0982 48.1071 24.2589 48.1071 25.5357Z" stroke="white" stroke-width="1.5" stroke-miterlimit="10" stroke-linecap="round" stroke-linejoin="round"/>
<path d="M24.8928 26.6964V42.9464C24.8928 43.9098 25.9839 44.4553 26.75 43.875L28.7348 42.3892C29.1991 42.041 29.8491 42.0875 30.2669 42.5053L32.1937 44.4437C32.6464 44.8964 33.3893 44.8964 33.8419 44.4437L35.7919 42.4937C36.1982 42.0875 36.8482 42.041 37.3009 42.3892L39.2857 43.875C40.0518 44.4437 41.1428 43.8982 41.1428 42.9464V23.2143C41.1428 21.9375 42.1875 20.8928 43.4643 20.8928H30.6964H29.5357C26.0535 20.8928 24.8928 22.9705 24.8928 25.5357V26.6964Z" stroke="white" stroke-width="1.5" stroke-miterlimit="10" stroke-linecap="round" stroke-linejoin="round"/>
<path d="M33.0178 33.6723H36.5" stroke="white" stroke-width="1.5" stroke-linecap="round" stroke-linejoin="round"/>
<path d="M33.0178 29.0294H36.5" stroke="white" stroke-width="1.5" stroke-linecap="round" stroke-linejoin="round"/>
<path d="M29.5306 33.6607H29.541" stroke="white" stroke-width="2" stroke-linecap="round" stroke-linejoin="round"/>
<path d="M29.5306 29.0178H29.541" stroke="white" stroke-width="2" stroke-linecap="round" stroke-linejoin="round"/>
<defs>
<filter id="filter0_d_169_3694" x="0" y="0" width="73" height="73" filterUnits="userSpaceOnUse" color-interpolation-filters="sRGB">
<feFlood flood-opacity="0" result="BackgroundImageFix"/>
<feColorMatrix in="SourceAlpha" type="matrix" values="0 0 0 0 0 0 0 0 0 0 0 0 0 0 0 0 0 0 127 0" result="hardAlpha"/>
<feOffset dy="4"/>
<feGaussianBlur stdDeviation="2"/>
<feComposite in2="hardAlpha" operator="out"/>
<feColorMatrix type="matrix" values="0 0 0 0 0 0 0 0 0 0 0 0 0 0 0 0 0 0 0.05 0"/>
<feBlend mode="normal" in2="BackgroundImageFix" result="effect1_dropShadow_169_3694"/>
<feBlend mode="normal" in="SourceGraphic" in2="effect1_dropShadow_169_3694" result="shape"/>
</filter>
</defs>
</svg>
