<svg width="73" height="73" viewBox="0 0 73 73" fill="none" xmlns="http://www.w3.org/2000/svg">
<g filter="url(#filter0_d_169_3683)">
<circle cx="36.5" cy="32.5" r="32.5" fill="#2A4368"/>
</g>
<path d="M44.9732 27.7643V33.742C44.9732 37.317 42.9304 38.8491 39.8661 38.8491H29.6634C29.1411 38.8491 28.642 38.8027 28.1777 38.6982C27.8875 38.6518 27.6089 38.5706 27.3536 38.4777C25.6125 37.8277 24.5562 36.3188 24.5562 33.742V27.7643C24.5562 24.1893 26.5991 22.6572 29.6634 22.6572H39.8661C42.4661 22.6572 44.3348 23.7598 44.8339 26.2786C44.9152 26.7429 44.9732 27.2187 44.9732 27.7643Z" stroke="white" stroke-width="1.5" stroke-miterlimit="10" stroke-linecap="round" stroke-linejoin="round"/>
<path d="M48.4566 31.2466V37.2243C48.4566 40.7993 46.4138 42.3314 43.3495 42.3314H33.1468C32.2879 42.3314 31.5102 42.2154 30.837 41.96C29.4558 41.4493 28.5156 40.393 28.179 38.6984C28.6432 38.8029 29.1423 38.8492 29.6647 38.8492H39.8674C42.9316 38.8492 44.9745 37.3171 44.9745 33.7421V27.7644C44.9745 27.2189 44.9281 26.7314 44.8352 26.2787C47.0406 26.743 48.4566 28.2984 48.4566 31.2466Z" stroke="white" stroke-width="1.5" stroke-miterlimit="10" stroke-linecap="round" stroke-linejoin="round"/>
<path d="M34.7571 33.8231C36.4495 33.8231 37.8214 32.4511 37.8214 30.7588C37.8214 29.0664 36.4495 27.6945 34.7571 27.6945C33.0648 27.6945 31.6928 29.0664 31.6928 30.7588C31.6928 32.4511 33.0648 33.8231 34.7571 33.8231Z" stroke="white" stroke-width="1.5" stroke-miterlimit="10" stroke-linecap="round" stroke-linejoin="round"/>
<path d="M28.1197 28.2053V33.3125" stroke="white" stroke-width="1.5" stroke-miterlimit="10" stroke-linecap="round" stroke-linejoin="round"/>
<path d="M41.4002 28.2057V33.3129" stroke="white" stroke-width="1.5" stroke-miterlimit="10" stroke-linecap="round" stroke-linejoin="round"/>
<defs>
<filter id="filter0_d_169_3683" x="0" y="0" width="73" height="73" filterUnits="userSpaceOnUse" color-interpolation-filters="sRGB">
<feFlood flood-opacity="0" result="BackgroundImageFix"/>
<feColorMatrix in="SourceAlpha" type="matrix" values="0 0 0 0 0 0 0 0 0 0 0 0 0 0 0 0 0 0 127 0" result="hardAlpha"/>
<feOffset dy="4"/>
<feGaussianBlur stdDeviation="2"/>
<feComposite in2="hardAlpha" operator="out"/>
<feColorMatrix type="matrix" values="0 0 0 0 0 0 0 0 0 0 0 0 0 0 0 0 0 0 0.05 0"/>
<feBlend mode="normal" in2="BackgroundImageFix" result="effect1_dropShadow_169_3683"/>
<feBlend mode="normal" in="SourceGraphic" in2="effect1_dropShadow_169_3683" result="shape"/>
</filter>
</defs>
</svg>
