<svg width="41" height="40" viewBox="0 0 41 40" fill="none" xmlns="http://www.w3.org/2000/svg">
<path fill-rule="evenodd" clip-rule="evenodd" d="M20.5001 38.3337C10.3749 38.3337 2.16675 30.1255 2.16675 20.0003C2.16675 9.8751 10.3749 1.66699 20.5001 1.66699C30.6253 1.66699 38.8334 9.8751 38.8334 20.0003C38.8334 30.1255 30.6253 38.3337 20.5001 38.3337ZM20.5001 35.0003C28.7844 35.0003 35.5001 28.2846 35.5001 20.0003C35.5001 11.7161 28.7844 5.00033 20.5001 5.00033C12.2158 5.00033 5.50008 11.7161 5.50008 20.0003C5.50008 28.2846 12.2158 35.0003 20.5001 35.0003ZM25.9882 13.8218L17.1667 22.6433L13.3453 18.8218L10.9882 21.1788L17.1667 27.3573L28.3453 16.1788L25.9882 13.8218Z" fill="#34A853"/>
</svg>
