<svg width="321" height="331" viewBox="0 0 321 331" fill="none" xmlns="http://www.w3.org/2000/svg">
<rect x="16" y="250" width="279" height="61" rx="10" fill="#4285F4"/>
<!--<rect x="16" y="330" width="279" height="61" rx="10" fill="url(#paint0_linear_518_3383)"/>-->
<g filter="url(#filter0_d_518_3383)">
<rect x="5" width="301" height="288" rx="10" fill="white"/>
</g>
<g filter="url(#filter1_d_518_3383)">
<rect x="16" y="76" width="279" height="194" rx="10" fill="white"/>
<rect x="16.5" y="76.5" width="278" height="193" rx="9.5" stroke="#E6ECF7"/>
</g>
<rect x="32" y="91" width="68" height="9" rx="2" fill="#BFE7FF"/>
<rect x="32" y="105" width="36" height="9" rx="2" fill="#BFE7FF"/>
<path d="M37.238 123.438H35.105V129H34.223V123.438H32.09V122.619H37.238V123.438ZM38.0846 127.974C38.3486 128.244 38.6696 128.379 39.0476 128.379C39.4256 128.379 39.7436 128.244 40.0016 127.974C40.2656 127.698 40.3976 127.317 40.3976 126.831C40.3976 126.351 40.2656 125.976 40.0016 125.706C39.7436 125.43 39.4256 125.292 39.0476 125.292C38.6696 125.292 38.3486 125.43 38.0846 125.706C37.8266 125.976 37.6976 126.351 37.6976 126.831C37.6976 127.317 37.8266 127.698 38.0846 127.974ZM37.4546 125.193C37.8746 124.755 38.4056 124.536 39.0476 124.536C39.6896 124.536 40.2176 124.755 40.6316 125.193C41.0516 125.625 41.2616 126.171 41.2616 126.831C41.2616 127.497 41.0546 128.049 40.6406 128.487C40.2266 128.919 39.6956 129.135 39.0476 129.135C38.3996 129.135 37.8686 128.919 37.4546 128.487C37.0406 128.049 36.8336 127.497 36.8336 126.831C36.8336 126.171 37.0406 125.625 37.4546 125.193ZM43.4341 123.303V124.671H44.3701V125.436H43.4341V127.686C43.4341 127.89 43.4791 128.04 43.5691 128.136C43.6651 128.232 43.8211 128.28 44.0371 128.28C44.1631 128.28 44.2741 128.268 44.3701 128.244V128.964C44.2261 129.018 44.0341 129.045 43.7941 129.045C43.4221 129.045 43.1281 128.937 42.9121 128.721C42.6961 128.505 42.5881 128.202 42.5881 127.812V125.436H41.7601V124.671H41.9941C42.2161 124.671 42.3811 124.611 42.4891 124.491C42.6031 124.365 42.6601 124.203 42.6601 124.005V123.303H43.4341ZM45.2293 127.839C45.2293 127.467 45.3493 127.17 45.5893 126.948C45.8293 126.72 46.1473 126.579 46.5433 126.525L47.7133 126.354C47.9353 126.324 48.0463 126.216 48.0463 126.03C48.0463 125.802 47.9683 125.616 47.8123 125.472C47.6563 125.328 47.4223 125.256 47.1103 125.256C46.8223 125.256 46.5943 125.337 46.4263 125.499C46.2583 125.655 46.1593 125.865 46.1293 126.129L45.3193 125.94C45.3613 125.526 45.5503 125.19 45.8863 124.932C46.2223 124.668 46.6243 124.536 47.0923 124.536C47.7043 124.536 48.1573 124.686 48.4513 124.986C48.7453 125.28 48.8923 125.658 48.8923 126.12V128.289C48.8923 128.547 48.9103 128.784 48.9463 129H48.1183C48.0883 128.82 48.0733 128.625 48.0733 128.415C47.9533 128.607 47.7763 128.775 47.5423 128.919C47.3143 129.063 47.0263 129.135 46.6783 129.135C46.2523 129.135 45.9043 129.009 45.6343 128.757C45.3643 128.499 45.2293 128.193 45.2293 127.839ZM46.7953 128.424C47.1733 128.424 47.4763 128.322 47.7043 128.118C47.9323 127.914 48.0463 127.59 48.0463 127.146V126.948L46.7233 127.146C46.5313 127.176 46.3783 127.245 46.2643 127.353C46.1503 127.461 46.0933 127.608 46.0933 127.794C46.0933 127.962 46.1563 128.109 46.2823 128.235C46.4143 128.361 46.5853 128.424 46.7953 128.424ZM51.0562 129H50.2102V122.484H51.0562V129ZM57.1484 124.626V125.526C57.0224 125.508 56.8994 125.499 56.7794 125.499C55.9874 125.499 55.5914 125.943 55.5914 126.831V129H54.7454V124.671H55.5734V125.427C55.8374 124.875 56.2694 124.599 56.8694 124.599C56.9654 124.599 57.0584 124.608 57.1484 124.626ZM58.5551 126.39H60.9221C60.9101 126.066 60.8021 125.802 60.5981 125.598C60.3941 125.388 60.1061 125.283 59.7341 125.283C59.3981 125.283 59.1221 125.394 58.9061 125.616C58.6901 125.832 58.5731 126.09 58.5551 126.39ZM61.0481 127.515L61.7771 127.767C61.6511 128.169 61.4171 128.499 61.0751 128.757C60.7331 129.009 60.3191 129.135 59.8331 129.135C59.2271 129.135 58.7111 128.928 58.2851 128.514C57.8651 128.094 57.6551 127.53 57.6551 126.822C57.6551 126.162 57.8591 125.616 58.2671 125.184C58.6751 124.752 59.1611 124.536 59.7251 124.536C60.3791 124.536 60.8891 124.743 61.2551 125.157C61.6211 125.565 61.8041 126.114 61.8041 126.804C61.8041 126.912 61.7981 127.002 61.7861 127.074H58.5281C58.5341 127.458 58.6601 127.773 58.9061 128.019C59.1581 128.265 59.4671 128.388 59.8331 128.388C60.4511 128.388 60.8561 128.097 61.0481 127.515ZM64.7021 125.319C64.3361 125.319 64.0241 125.451 63.7661 125.715C63.5141 125.979 63.3881 126.351 63.3881 126.831C63.3881 127.305 63.5141 127.677 63.7661 127.947C64.0241 128.217 64.3331 128.352 64.7111 128.352C65.0711 128.352 65.3441 128.262 65.5301 128.082C65.7221 127.902 65.8511 127.695 65.9171 127.461L66.6641 127.785C66.5441 128.145 66.3161 128.46 65.9801 128.73C65.6501 129 65.2271 129.135 64.7111 129.135C64.0811 129.135 63.5591 128.916 63.1451 128.478C62.7311 128.04 62.5241 127.491 62.5241 126.831C62.5241 126.159 62.7311 125.61 63.1451 125.184C63.5591 124.752 64.0781 124.536 64.7021 124.536C65.2301 124.536 65.6561 124.671 65.9801 124.941C66.3101 125.211 66.5261 125.535 66.6281 125.913L65.8631 126.237C65.7971 125.985 65.6711 125.769 65.4851 125.589C65.2991 125.409 65.0381 125.319 64.7021 125.319ZM68.1616 126.39H70.5286C70.5166 126.066 70.4086 125.802 70.2046 125.598C70.0006 125.388 69.7126 125.283 69.3406 125.283C69.0046 125.283 68.7286 125.394 68.5126 125.616C68.2966 125.832 68.1796 126.09 68.1616 126.39ZM70.6546 127.515L71.3836 127.767C71.2576 128.169 71.0236 128.499 70.6816 128.757C70.3396 129.009 69.9256 129.135 69.4396 129.135C68.8336 129.135 68.3176 128.928 67.8916 128.514C67.4716 128.094 67.2616 127.53 67.2616 126.822C67.2616 126.162 67.4656 125.616 67.8736 125.184C68.2816 124.752 68.7676 124.536 69.3316 124.536C69.9856 124.536 70.4956 124.743 70.8616 125.157C71.2276 125.565 71.4106 126.114 71.4106 126.804C71.4106 126.912 71.4046 127.002 71.3926 127.074H68.1346C68.1406 127.458 68.2666 127.773 68.5126 128.019C68.7646 128.265 69.0736 128.388 69.4396 128.388C70.0576 128.388 70.4626 128.097 70.6546 127.515ZM73.3275 129H72.4905V124.671H73.3275V129ZM72.4725 123.465C72.3585 123.345 72.3015 123.201 72.3015 123.033C72.3015 122.865 72.3585 122.721 72.4725 122.601C72.5925 122.481 72.7365 122.421 72.9045 122.421C73.0725 122.421 73.2165 122.481 73.3365 122.601C73.4565 122.715 73.5165 122.859 73.5165 123.033C73.5165 123.201 73.4565 123.345 73.3365 123.465C73.2165 123.579 73.0725 123.636 72.9045 123.636C72.7365 123.636 72.5925 123.579 72.4725 123.465ZM78.4749 124.671L76.7469 129H75.8919L74.1369 124.671H75.0909L76.3239 128.01L77.5659 124.671H78.4749ZM79.7016 126.39H82.0686C82.0566 126.066 81.9486 125.802 81.7446 125.598C81.5406 125.388 81.2526 125.283 80.8806 125.283C80.5446 125.283 80.2686 125.394 80.0526 125.616C79.8366 125.832 79.7196 126.09 79.7016 126.39ZM82.1946 127.515L82.9236 127.767C82.7976 128.169 82.5636 128.499 82.2216 128.757C81.8796 129.009 81.4656 129.135 80.9796 129.135C80.3736 129.135 79.8576 128.928 79.4316 128.514C79.0116 128.094 78.8016 127.53 78.8016 126.822C78.8016 126.162 79.0056 125.616 79.4136 125.184C79.8216 124.752 80.3076 124.536 80.8716 124.536C81.5256 124.536 82.0356 124.743 82.4016 125.157C82.7676 125.565 82.9506 126.114 82.9506 126.804C82.9506 126.912 82.9446 127.002 82.9326 127.074H79.6746C79.6806 127.458 79.8066 127.773 80.0526 128.019C80.3046 128.265 80.6136 128.388 80.9796 128.388C81.5976 128.388 82.0026 128.097 82.1946 127.515ZM84.5345 126.822C84.5345 127.278 84.6455 127.65 84.8675 127.938C85.0955 128.226 85.4075 128.37 85.8035 128.37C86.1815 128.37 86.4845 128.223 86.7125 127.929C86.9405 127.635 87.0545 127.26 87.0545 126.804C87.0545 126.354 86.9435 125.991 86.7215 125.715C86.4995 125.439 86.1965 125.301 85.8125 125.301C85.4285 125.301 85.1195 125.442 84.8855 125.724C84.6515 126.006 84.5345 126.372 84.5345 126.822ZM87.0635 128.415V128.343C86.9495 128.565 86.7755 128.751 86.5415 128.901C86.3135 129.045 86.0405 129.117 85.7225 129.117C85.1045 129.117 84.6065 128.901 84.2285 128.469C83.8565 128.031 83.6705 127.482 83.6705 126.822C83.6705 126.192 83.8625 125.658 84.2465 125.22C84.6305 124.776 85.1225 124.554 85.7225 124.554C86.0765 124.554 86.3645 124.626 86.5865 124.77C86.8085 124.908 86.9615 125.079 87.0455 125.283V122.484H87.8825V128.199C87.8825 128.493 87.8975 128.76 87.9275 129H87.1085C87.0785 128.832 87.0635 128.637 87.0635 128.415Z" fill="#939BA9"/>
<rect x="211" y="91" width="68" height="9" rx="2" fill="#809DAC"/>
<rect x="243" y="105" width="36" height="9" rx="2" fill="#809DAC"/>
<path d="M239.238 123.438H237.105V129H236.223V123.438H234.09V122.619H239.238V123.438ZM240.085 127.974C240.349 128.244 240.67 128.379 241.048 128.379C241.426 128.379 241.744 128.244 242.002 127.974C242.266 127.698 242.398 127.317 242.398 126.831C242.398 126.351 242.266 125.976 242.002 125.706C241.744 125.43 241.426 125.292 241.048 125.292C240.67 125.292 240.349 125.43 240.085 125.706C239.827 125.976 239.698 126.351 239.698 126.831C239.698 127.317 239.827 127.698 240.085 127.974ZM239.455 125.193C239.875 124.755 240.406 124.536 241.048 124.536C241.69 124.536 242.218 124.755 242.632 125.193C243.052 125.625 243.262 126.171 243.262 126.831C243.262 127.497 243.055 128.049 242.641 128.487C242.227 128.919 241.696 129.135 241.048 129.135C240.4 129.135 239.869 128.919 239.455 128.487C239.041 128.049 238.834 127.497 238.834 126.831C238.834 126.171 239.041 125.625 239.455 125.193ZM245.434 123.303V124.671H246.37V125.436H245.434V127.686C245.434 127.89 245.479 128.04 245.569 128.136C245.665 128.232 245.821 128.28 246.037 128.28C246.163 128.28 246.274 128.268 246.37 128.244V128.964C246.226 129.018 246.034 129.045 245.794 129.045C245.422 129.045 245.128 128.937 244.912 128.721C244.696 128.505 244.588 128.202 244.588 127.812V125.436H243.76V124.671H243.994C244.216 124.671 244.381 124.611 244.489 124.491C244.603 124.365 244.66 124.203 244.66 124.005V123.303H245.434ZM247.229 127.839C247.229 127.467 247.349 127.17 247.589 126.948C247.829 126.72 248.147 126.579 248.543 126.525L249.713 126.354C249.935 126.324 250.046 126.216 250.046 126.03C250.046 125.802 249.968 125.616 249.812 125.472C249.656 125.328 249.422 125.256 249.11 125.256C248.822 125.256 248.594 125.337 248.426 125.499C248.258 125.655 248.159 125.865 248.129 126.129L247.319 125.94C247.361 125.526 247.55 125.19 247.886 124.932C248.222 124.668 248.624 124.536 249.092 124.536C249.704 124.536 250.157 124.686 250.451 124.986C250.745 125.28 250.892 125.658 250.892 126.12V128.289C250.892 128.547 250.91 128.784 250.946 129H250.118C250.088 128.82 250.073 128.625 250.073 128.415C249.953 128.607 249.776 128.775 249.542 128.919C249.314 129.063 249.026 129.135 248.678 129.135C248.252 129.135 247.904 129.009 247.634 128.757C247.364 128.499 247.229 128.193 247.229 127.839ZM248.795 128.424C249.173 128.424 249.476 128.322 249.704 128.118C249.932 127.914 250.046 127.59 250.046 127.146V126.948L248.723 127.146C248.531 127.176 248.378 127.245 248.264 127.353C248.15 127.461 248.093 127.608 248.093 127.794C248.093 127.962 248.156 128.109 248.282 128.235C248.414 128.361 248.585 128.424 248.795 128.424ZM253.056 129H252.21V122.484H253.056V129ZM256.34 127.875L257.105 127.605C257.135 127.839 257.237 128.034 257.411 128.19C257.585 128.34 257.819 128.415 258.113 128.415C258.341 128.415 258.521 128.361 258.653 128.253C258.785 128.139 258.851 128.001 258.851 127.839C258.851 127.551 258.665 127.365 258.293 127.281L257.555 127.119C257.219 127.047 256.955 126.903 256.763 126.687C256.571 126.471 256.475 126.21 256.475 125.904C256.475 125.532 256.625 125.211 256.925 124.941C257.231 124.671 257.594 124.536 258.014 124.536C258.29 124.536 258.536 124.578 258.752 124.662C258.968 124.74 259.136 124.845 259.256 124.977C259.376 125.109 259.466 125.232 259.526 125.346C259.586 125.46 259.631 125.577 259.661 125.697L258.914 125.976C258.902 125.904 258.881 125.835 258.851 125.769C258.821 125.697 258.773 125.619 258.707 125.535C258.647 125.451 258.557 125.385 258.437 125.337C258.317 125.283 258.176 125.256 258.014 125.256C257.804 125.256 257.63 125.313 257.492 125.427C257.36 125.541 257.294 125.676 257.294 125.832C257.294 126.108 257.459 126.282 257.789 126.354L258.491 126.507C258.875 126.591 259.169 126.747 259.373 126.975C259.583 127.197 259.688 127.47 259.688 127.794C259.688 128.136 259.547 128.445 259.265 128.721C258.989 128.997 258.602 129.135 258.104 129.135C257.57 129.135 257.153 129.003 256.853 128.739C256.553 128.469 256.382 128.181 256.34 127.875ZM261.652 130.71H260.815V124.671H261.634V125.346C261.76 125.118 261.949 124.932 262.201 124.788C262.453 124.644 262.747 124.572 263.083 124.572C263.707 124.572 264.193 124.785 264.541 125.211C264.895 125.637 265.072 126.177 265.072 126.831C265.072 127.491 264.889 128.037 264.523 128.469C264.163 128.901 263.674 129.117 263.056 129.117C262.738 129.117 262.456 129.051 262.21 128.919C261.964 128.787 261.778 128.619 261.652 128.415V130.71ZM264.208 126.831C264.208 126.393 264.091 126.033 263.857 125.751C263.629 125.463 263.32 125.319 262.93 125.319C262.546 125.319 262.234 125.463 261.994 125.751C261.76 126.033 261.643 126.393 261.643 126.831C261.643 127.281 261.76 127.65 261.994 127.938C262.234 128.22 262.546 128.361 262.93 128.361C263.314 128.361 263.623 128.22 263.857 127.938C264.091 127.65 264.208 127.281 264.208 126.831ZM266.699 126.39H269.066C269.054 126.066 268.946 125.802 268.742 125.598C268.538 125.388 268.25 125.283 267.878 125.283C267.542 125.283 267.266 125.394 267.05 125.616C266.834 125.832 266.717 126.09 266.699 126.39ZM269.192 127.515L269.921 127.767C269.795 128.169 269.561 128.499 269.219 128.757C268.877 129.009 268.463 129.135 267.977 129.135C267.371 129.135 266.855 128.928 266.429 128.514C266.009 128.094 265.799 127.53 265.799 126.822C265.799 126.162 266.003 125.616 266.411 125.184C266.819 124.752 267.305 124.536 267.869 124.536C268.523 124.536 269.033 124.743 269.399 125.157C269.765 125.565 269.948 126.114 269.948 126.804C269.948 126.912 269.942 127.002 269.93 127.074H266.672C266.678 127.458 266.804 127.773 267.05 128.019C267.302 128.265 267.611 128.388 267.977 128.388C268.595 128.388 269 128.097 269.192 127.515ZM271.874 126.498V129H271.028V124.671H271.856V125.292C272.144 124.794 272.588 124.545 273.188 124.545C273.686 124.545 274.067 124.704 274.331 125.022C274.601 125.34 274.736 125.751 274.736 126.255V129H273.89V126.399C273.89 125.673 273.554 125.31 272.882 125.31C272.564 125.31 272.315 125.424 272.135 125.652C271.961 125.874 271.874 126.156 271.874 126.498ZM277.215 123.303V124.671H278.151V125.436H277.215V127.686C277.215 127.89 277.26 128.04 277.35 128.136C277.446 128.232 277.602 128.28 277.818 128.28C277.944 128.28 278.055 128.268 278.151 128.244V128.964C278.007 129.018 277.815 129.045 277.575 129.045C277.203 129.045 276.909 128.937 276.693 128.721C276.477 128.505 276.369 128.202 276.369 127.812V125.436H275.541V124.671H275.775C275.997 124.671 276.162 124.611 276.27 124.491C276.384 124.365 276.441 124.203 276.441 124.005V123.303H277.215Z" fill="#939BA9"/>
<path d="M33.0222 15.491C33.0222 15.5927 33.0314 18.181 33.0314 18.2827C32.9948 21.2963 30.4621 23.7737 27.4447 23.7275C24.4456 23.6905 21.9494 21.1299 21.9768 18.1256C21.9768 18.0793 21.9768 18.0331 21.986 17.9869H16.3078C16.3078 18.0886 16.2987 18.1903 16.2987 18.2919C16.3261 24.3284 20.9436 29.2001 27.0332 29.616C32.5559 29.9951 38.0421 25.5763 38.5998 19.8265C38.6547 19.2164 38.7004 16.1103 38.737 15.491H33.0222Z" fill="#100F3C"/>
<path d="M38.2432 28.0815C39.5599 31.3447 38.1152 34.5894 34.8418 35.9113C32.4919 36.8635 30.0872 37.6862 27.7099 38.5644C24.9211 39.5905 22.1414 40.6259 19.3527 41.652C19.0052 41.7814 18.6395 41.8461 18.292 41.9385C17.1674 39.0174 18.292 35.6802 21.0991 34.5432C26.7315 32.2784 32.4554 30.2539 38.2432 28.0815Z" fill="#100F3C"/>
<rect x="227" y="15" width="68" height="9" rx="2" fill="#939BA9"/>
<rect x="259" y="29" width="36" height="9" rx="2" fill="#939BA9"/>
<path d="M263.81 46.619H265.889C266.483 46.619 266.951 46.778 267.293 47.096C267.641 47.414 267.815 47.831 267.815 48.347C267.815 48.677 267.728 48.962 267.554 49.202C267.38 49.442 267.149 49.616 266.861 49.724C267.215 49.814 267.494 50.003 267.698 50.291C267.908 50.573 268.013 50.897 268.013 51.263C268.013 51.767 267.83 52.184 267.464 52.514C267.098 52.838 266.624 53 266.042 53H263.81V46.619ZM264.692 49.409H265.79C266.138 49.409 266.414 49.316 266.618 49.13C266.822 48.938 266.924 48.692 266.924 48.392C266.924 48.086 266.819 47.843 266.609 47.663C266.399 47.483 266.114 47.393 265.754 47.393H264.692V49.409ZM264.692 52.226H265.916C266.276 52.226 266.564 52.133 266.78 51.947C267.002 51.761 267.113 51.515 267.113 51.209C267.113 50.891 267.014 50.639 266.816 50.453C266.618 50.261 266.33 50.165 265.952 50.165H264.692V52.226ZM268.776 51.839C268.776 51.467 268.896 51.17 269.136 50.948C269.376 50.72 269.694 50.579 270.09 50.525L271.26 50.354C271.482 50.324 271.593 50.216 271.593 50.03C271.593 49.802 271.515 49.616 271.359 49.472C271.203 49.328 270.969 49.256 270.657 49.256C270.369 49.256 270.141 49.337 269.973 49.499C269.805 49.655 269.706 49.865 269.676 50.129L268.866 49.94C268.908 49.526 269.097 49.19 269.433 48.932C269.769 48.668 270.171 48.536 270.639 48.536C271.251 48.536 271.704 48.686 271.998 48.986C272.292 49.28 272.439 49.658 272.439 50.12V52.289C272.439 52.547 272.457 52.784 272.493 53H271.665C271.635 52.82 271.62 52.625 271.62 52.415C271.5 52.607 271.323 52.775 271.089 52.919C270.861 53.063 270.573 53.135 270.225 53.135C269.799 53.135 269.451 53.009 269.181 52.757C268.911 52.499 268.776 52.193 268.776 51.839ZM270.342 52.424C270.72 52.424 271.023 52.322 271.251 52.118C271.479 51.914 271.593 51.59 271.593 51.146V50.948L270.27 51.146C270.078 51.176 269.925 51.245 269.811 51.353C269.697 51.461 269.64 51.608 269.64 51.794C269.64 51.962 269.703 52.109 269.829 52.235C269.961 52.361 270.132 52.424 270.342 52.424ZM274.603 53H273.757V46.484H274.603V53ZM275.772 51.839C275.772 51.467 275.892 51.17 276.132 50.948C276.372 50.72 276.69 50.579 277.086 50.525L278.256 50.354C278.478 50.324 278.589 50.216 278.589 50.03C278.589 49.802 278.511 49.616 278.355 49.472C278.199 49.328 277.965 49.256 277.653 49.256C277.365 49.256 277.137 49.337 276.969 49.499C276.801 49.655 276.702 49.865 276.672 50.129L275.862 49.94C275.904 49.526 276.093 49.19 276.429 48.932C276.765 48.668 277.167 48.536 277.635 48.536C278.247 48.536 278.7 48.686 278.994 48.986C279.288 49.28 279.435 49.658 279.435 50.12V52.289C279.435 52.547 279.453 52.784 279.489 53H278.661C278.631 52.82 278.616 52.625 278.616 52.415C278.496 52.607 278.319 52.775 278.085 52.919C277.857 53.063 277.569 53.135 277.221 53.135C276.795 53.135 276.447 53.009 276.177 52.757C275.907 52.499 275.772 52.193 275.772 51.839ZM277.338 52.424C277.716 52.424 278.019 52.322 278.247 52.118C278.475 51.914 278.589 51.59 278.589 51.146V50.948L277.266 51.146C277.074 51.176 276.921 51.245 276.807 51.353C276.693 51.461 276.636 51.608 276.636 51.794C276.636 51.962 276.699 52.109 276.825 52.235C276.957 52.361 277.128 52.424 277.338 52.424ZM281.599 50.498V53H280.753V48.671H281.581V49.292C281.869 48.794 282.313 48.545 282.913 48.545C283.411 48.545 283.792 48.704 284.056 49.022C284.326 49.34 284.461 49.751 284.461 50.255V53H283.615V50.399C283.615 49.673 283.279 49.31 282.607 49.31C282.289 49.31 282.04 49.424 281.86 49.652C281.686 49.874 281.599 50.156 281.599 50.498ZM287.625 49.319C287.259 49.319 286.947 49.451 286.689 49.715C286.437 49.979 286.311 50.351 286.311 50.831C286.311 51.305 286.437 51.677 286.689 51.947C286.947 52.217 287.262 52.352 287.634 52.352C287.994 52.352 288.267 52.262 288.453 52.082C288.645 51.902 288.774 51.695 288.84 51.461L289.587 51.785C289.467 52.145 289.239 52.46 288.903 52.73C288.573 53 288.15 53.135 287.634 53.135C287.004 53.135 286.482 52.916 286.068 52.478C285.654 52.04 285.447 51.491 285.447 50.831C285.447 50.159 285.654 49.61 286.068 49.184C286.482 48.752 287.001 48.536 287.625 48.536C288.153 48.536 288.579 48.671 288.903 48.941C289.233 49.211 289.449 49.535 289.551 49.913L288.786 50.237C288.72 49.985 288.594 49.769 288.408 49.589C288.222 49.409 287.961 49.319 287.625 49.319ZM291.084 50.39H293.451C293.439 50.066 293.331 49.802 293.127 49.598C292.923 49.388 292.635 49.283 292.263 49.283C291.927 49.283 291.651 49.394 291.435 49.616C291.219 49.832 291.102 50.09 291.084 50.39ZM293.577 51.515L294.306 51.767C294.18 52.169 293.946 52.499 293.604 52.757C293.262 53.009 292.848 53.135 292.362 53.135C291.756 53.135 291.24 52.928 290.814 52.514C290.394 52.094 290.184 51.53 290.184 50.822C290.184 50.162 290.388 49.616 290.796 49.184C291.204 48.752 291.69 48.536 292.254 48.536C292.908 48.536 293.418 48.743 293.784 49.157C294.15 49.565 294.333 50.114 294.333 50.804C294.333 50.912 294.327 51.002 294.315 51.074H291.057C291.063 51.458 291.189 51.773 291.435 52.019C291.687 52.265 291.996 52.388 292.362 52.388C292.98 52.388 293.385 52.097 293.577 51.515Z" fill="#25282B"/>
<path d="M33.5 196C33.5 193.239 35.7386 191 38.5 191H57.5C60.2614 191 62.5 193.239 62.5 196V263H33.5V196Z" fill="#4285F4"/>
<path d="M76.5 223C76.5 220.239 78.7386 218 81.5 218H100.5C103.261 218 105.5 220.239 105.5 223V263H76.5V223Z" fill="#BFE7FF"/>
<path d="M119.5 205C119.5 202.239 121.739 200 124.5 200H143.5C146.261 200 148.5 202.239 148.5 205V263H119.5V205Z" fill="#BFE7FF"/>
<path d="M162.5 233C162.5 230.239 164.739 228 167.5 228H186.5C189.261 228 191.5 230.239 191.5 233V263H162.5V233Z" fill="#BFE7FF"/>
<path d="M205.5 263C205.5 260.239 207.739 258 210.5 258H229.5C232.261 258 234.5 260.239 234.5 263H205.5Z" fill="#F2436D"/>
<path d="M248.5 177C248.5 174.239 250.739 172 253.5 172H272.5C275.261 172 277.5 174.239 277.5 177V263H248.5V177Z" fill="#0066FF"/>
<path d="M254.599 154.848H251.827V162H250.387V154.848H247.627V153.492H254.599V154.848ZM255.927 160.44C256.247 160.768 256.635 160.932 257.091 160.932C257.547 160.932 257.931 160.768 258.243 160.44C258.563 160.112 258.723 159.656 258.723 159.072C258.723 158.496 258.563 158.048 258.243 157.728C257.931 157.4 257.547 157.236 257.091 157.236C256.635 157.236 256.247 157.4 255.927 157.728C255.615 158.048 255.459 158.496 255.459 159.072C255.459 159.648 255.615 160.104 255.927 160.44ZM257.091 155.976C257.971 155.976 258.695 156.268 259.263 156.852C259.839 157.436 260.127 158.176 260.127 159.072C260.127 159.968 259.839 160.712 259.263 161.304C258.695 161.888 257.971 162.18 257.091 162.18C256.219 162.18 255.495 161.888 254.919 161.304C254.351 160.712 254.067 159.968 254.067 159.072C254.067 158.176 254.351 157.436 254.919 156.852C255.495 156.268 256.219 155.976 257.091 155.976ZM262.408 159.06C262.408 159.62 262.552 160.072 262.84 160.416C263.128 160.752 263.508 160.92 263.98 160.92C264.436 160.92 264.808 160.748 265.096 160.404C265.384 160.06 265.528 159.608 265.528 159.048C265.528 158.496 265.388 158.056 265.108 157.728C264.828 157.4 264.456 157.236 263.992 157.236C263.528 157.236 263.148 157.404 262.852 157.74C262.556 158.068 262.408 158.508 262.408 159.06ZM266.872 153.312V160.932C266.872 161.324 266.892 161.68 266.932 162H265.6C265.56 161.776 265.54 161.524 265.54 161.244C265.396 161.508 265.172 161.724 264.868 161.892C264.564 162.06 264.216 162.144 263.824 162.144C262.992 162.144 262.316 161.852 261.796 161.268C261.276 160.684 261.016 159.948 261.016 159.06C261.016 158.204 261.276 157.48 261.796 156.888C262.324 156.296 262.992 156 263.8 156C264.264 156 264.636 156.084 264.916 156.252C265.204 156.42 265.404 156.616 265.516 156.84V153.312H266.872ZM268.308 160.416C268.308 159.92 268.468 159.524 268.788 159.228C269.116 158.924 269.544 158.732 270.072 158.652L271.572 158.424C271.86 158.384 272.004 158.244 272.004 158.004C272.004 157.74 271.912 157.528 271.728 157.368C271.544 157.2 271.268 157.116 270.9 157.116C270.548 157.116 270.268 157.216 270.06 157.416C269.852 157.608 269.732 157.86 269.7 158.172L268.428 157.884C268.484 157.356 268.736 156.908 269.184 156.54C269.632 156.164 270.2 155.976 270.888 155.976C271.736 155.976 272.36 156.18 272.76 156.588C273.168 156.996 273.372 157.52 273.372 158.16V161.064C273.372 161.448 273.396 161.76 273.444 162H272.148C272.108 161.88 272.088 161.632 272.088 161.256C271.704 161.872 271.104 162.18 270.288 162.18C269.696 162.18 269.216 162.008 268.848 161.664C268.488 161.312 268.308 160.896 268.308 160.416ZM270.552 161.088C270.984 161.088 271.332 160.972 271.596 160.74C271.868 160.5 272.004 160.112 272.004 159.576V159.312L270.48 159.54C269.96 159.628 269.7 159.892 269.7 160.332C269.7 160.54 269.776 160.72 269.928 160.872C270.08 161.016 270.288 161.088 270.552 161.088ZM276.69 164.364H275.202L276.606 161.304L274.11 156.156H275.682L277.362 159.852L278.934 156.156H280.41L276.69 164.364Z" fill="#465468"/>
<defs>
<filter id="filter0_d_518_3383" x="0" y="0" width="321" height="308" filterUnits="userSpaceOnUse" color-interpolation-filters="sRGB">
<feFlood flood-opacity="0" result="BackgroundImageFix"/>
<feColorMatrix in="SourceAlpha" type="matrix" values="0 0 0 0 0 0 0 0 0 0 0 0 0 0 0 0 0 0 127 0" result="hardAlpha"/>
<feOffset dx="5" dy="10"/>
<feGaussianBlur stdDeviation="5"/>
<feComposite in2="hardAlpha" operator="out"/>
<feColorMatrix type="matrix" values="0 0 0 0 0.230312 0 0 0 0 0.303187 0 0 0 0 0.4125 0 0 0 0.2 0"/>
<feBlend mode="normal" in2="BackgroundImageFix" result="effect1_dropShadow_518_3383"/>
<feBlend mode="normal" in="SourceGraphic" in2="effect1_dropShadow_518_3383" result="shape"/>
</filter>
<filter id="filter1_d_518_3383" x="11" y="76" width="299" height="214" filterUnits="userSpaceOnUse" color-interpolation-filters="sRGB">
<feFlood flood-opacity="0" result="BackgroundImageFix"/>
<feColorMatrix in="SourceAlpha" type="matrix" values="0 0 0 0 0 0 0 0 0 0 0 0 0 0 0 0 0 0 127 0" result="hardAlpha"/>
<feOffset dx="5" dy="10"/>
<feGaussianBlur stdDeviation="5"/>
<feComposite in2="hardAlpha" operator="out"/>
<feColorMatrix type="matrix" values="0 0 0 0 0.230312 0 0 0 0 0.303187 0 0 0 0 0.4125 0 0 0 0.2 0"/>
<feBlend mode="normal" in2="BackgroundImageFix" result="effect1_dropShadow_518_3383"/>
<feBlend mode="normal" in="SourceGraphic" in2="effect1_dropShadow_518_3383" result="shape"/>
</filter>
<!--<linearGradient id="paint0_linear_518_3383" x1="155.5" y1="330" x2="155.5" y2="391" gradientUnits="userSpaceOnUse">-->
<!--<stop stop-color="#4285F4"/>-->
<!--<stop offset="1" stop-color="#4285F4" stop-opacity="0"/>-->
<!--</linearGradient>-->
</defs>
</svg>
