<svg width="40" height="41" viewBox="0 0 40 41" fill="none" xmlns="http://www.w3.org/2000/svg">
<circle cx="20" cy="20.9961" r="20" fill="#EBEBEB"/>
<path d="M28.3333 19.3332V21.8332C28.3333 25.1665 26.6667 26.8332 23.3333 26.8332H22.9167C22.6583 26.8332 22.4083 26.9582 22.25 27.1665L21 28.8332C20.45 29.5665 19.55 29.5665 19 28.8332L17.75 27.1665C17.6167 26.9832 17.3083 26.8332 17.0833 26.8332H16.6667C13.3333 26.8332 11.6667 25.9998 11.6667 21.8332V17.6665C11.6667 14.3332 13.3333 12.6665 16.6667 12.6665H21.6667" stroke="#292D32" stroke-width="1.5" stroke-miterlimit="10" stroke-linecap="round" stroke-linejoin="round"/>
<path d="M26.25 16.8332C27.4006 16.8332 28.3333 15.9004 28.3333 14.7498C28.3333 13.5992 27.4006 12.6665 26.25 12.6665C25.0994 12.6665 24.1667 13.5992 24.1667 14.7498C24.1667 15.9004 25.0994 16.8332 26.25 16.8332Z" stroke="#292D32" stroke-width="1.5" stroke-linecap="round" stroke-linejoin="round"/>
<path d="M23.3304 20.1667H23.3379" stroke="#292D32" stroke-width="2" stroke-linecap="round" stroke-linejoin="round"/>
<path d="M19.9962 20.1667H20.0037" stroke="#292D32" stroke-width="2" stroke-linecap="round" stroke-linejoin="round"/>
<path d="M16.6621 20.1667H16.6696" stroke="#292D32" stroke-width="2" stroke-linecap="round" stroke-linejoin="round"/>
</svg>
