<svg width="40" height="41" viewBox="0 0 40 41" fill="none" xmlns="http://www.w3.org/2000/svg">
<circle cx="20" cy="20.9961" r="20" fill="#EBEBEB"/>
<path d="M28.0583 22.9126L27.725 27.0793C27.6 28.3543 27.5 29.3293 25.2417 29.3293H14.7583C12.5 29.3293 12.4 28.3543 12.275 27.0793L11.9417 22.9126C11.875 22.2209 12.0917 21.5793 12.4833 21.0876C12.4917 21.0793 12.4917 21.0793 12.5 21.0709C12.9583 20.5126 13.65 20.1626 14.425 20.1626H25.575C26.35 20.1626 27.0333 20.5126 27.4833 21.0543C27.4917 21.0626 27.5 21.0709 27.5 21.0793C27.9083 21.5709 28.1333 22.2126 28.0583 22.9126Z" stroke="#292D32" stroke-width="1.5" stroke-miterlimit="10"/>
<path d="M12.9167 20.5213V16.2297C12.9167 13.3963 13.625 12.688 16.4584 12.688H17.5167C18.575 12.688 18.8167 13.0047 19.2167 13.538L20.275 14.9547C20.5417 15.3047 20.7 15.5213 21.4084 15.5213H23.5334C26.3667 15.5213 27.075 16.2297 27.075 19.063V20.5547" stroke="#292D32" stroke-width="1.5" stroke-miterlimit="10" stroke-linecap="round" stroke-linejoin="round"/>
<path d="M17.8583 25.1626H22.1417" stroke="#292D32" stroke-width="1.5" stroke-miterlimit="10" stroke-linecap="round" stroke-linejoin="round"/>
</svg>
