<svg width="40" height="41" viewBox="0 0 40 41" fill="none" xmlns="http://www.w3.org/2000/svg">
<circle cx="20" cy="20.9961" r="20" fill="#EBEBEB"/>
<path d="M20.1 21.6502C20.0417 21.6419 19.9667 21.6419 19.9 21.6502C18.4333 21.6002 17.2667 20.4002 17.2667 18.9252C17.2667 17.4169 18.4833 16.1919 20 16.1919C21.5083 16.1919 22.7333 17.4169 22.7333 18.9252C22.725 20.4002 21.5667 21.6002 20.1 21.6502Z" stroke="#292D32" stroke-width="1.5" stroke-linecap="round" stroke-linejoin="round"/>
<path d="M25.6167 27.1498C24.1333 28.5081 22.1667 29.3331 20 29.3331C17.8333 29.3331 15.8667 28.5081 14.3833 27.1498C14.4667 26.3665 14.9667 25.5998 15.8583 24.9998C18.1417 23.4831 21.875 23.4831 24.1417 24.9998C25.0333 25.5998 25.5333 26.3665 25.6167 27.1498Z" stroke="#292D32" stroke-width="1.5" stroke-linecap="round" stroke-linejoin="round"/>
<path d="M20 29.3332C24.6024 29.3332 28.3333 25.6022 28.3333 20.9998C28.3333 16.3975 24.6024 12.6665 20 12.6665C15.3976 12.6665 11.6667 16.3975 11.6667 20.9998C11.6667 25.6022 15.3976 29.3332 20 29.3332Z" stroke="#292D32" stroke-width="1.5" stroke-linecap="round" stroke-linejoin="round"/>
</svg>
