<svg width="40" height="41" viewBox="0 0 40 41" fill="none" xmlns="http://www.w3.org/2000/svg">
<circle cx="20" cy="20.9961" r="20" fill="#EBEBEB"/>
<path d="M20 29.3332C24.6024 29.3332 28.3333 25.6022 28.3333 20.9998C28.3333 16.3975 24.6024 12.6665 20 12.6665C15.3976 12.6665 11.6667 16.3975 11.6667 20.9998C11.6667 25.6022 15.3976 29.3332 20 29.3332Z" stroke="#292D32" stroke-width="1.5" stroke-miterlimit="10" stroke-linecap="round" stroke-linejoin="round"/>
<path d="M20 23.4001C19.2417 23.4001 18.625 22.7835 18.625 22.0251V19.9668C18.625 19.2085 19.2417 18.5918 20 18.5918C20.7583 18.5918 21.375 19.2085 21.375 19.9668V22.0251C21.375 22.7835 20.7583 23.4001 20 23.4001Z" stroke="#292D32" stroke-width="1.5" stroke-linecap="round"/>
<path d="M24.15 22.2252C23.9833 24.3752 22.1833 26.0586 20 26.0586C17.7 26.0586 15.8333 24.1919 15.8333 21.8919V20.1086C15.8333 17.8086 17.7 15.9419 20 15.9419C22.1583 15.9419 23.9333 17.5836 24.1417 19.6836" stroke="#292D32" stroke-width="1.5" stroke-linecap="round"/>
</svg>
