<svg width="40" height="41" viewBox="0 0 40 41" fill="none" xmlns="http://www.w3.org/2000/svg">
<circle cx="20" cy="20.9961" r="20" fill="#EBEBEB"/>
<path d="M15 19.3332V17.6665C15 14.9082 15.8333 12.6665 20 12.6665C24.1667 12.6665 25 14.9082 25 17.6665V19.3332" stroke="#292D32" stroke-width="1.5" stroke-linecap="round" stroke-linejoin="round"/>
<path d="M24.1667 29.3335H15.8333C12.5 29.3335 11.6667 28.5002 11.6667 25.1668V23.5002C11.6667 20.1668 12.5 19.3335 15.8333 19.3335H24.1667C27.5 19.3335 28.3333 20.1668 28.3333 23.5002V25.1668C28.3333 28.5002 27.5 29.3335 24.1667 29.3335Z" stroke="#292D32" stroke-width="1.5" stroke-linecap="round" stroke-linejoin="round"/>
<path d="M23.3304 24.3332H23.3379" stroke="#292D32" stroke-width="2" stroke-linecap="round" stroke-linejoin="round"/>
<path d="M19.9962 24.3332H20.0037" stroke="#292D32" stroke-width="2" stroke-linecap="round" stroke-linejoin="round"/>
<path d="M16.6621 24.3332H16.6696" stroke="#292D32" stroke-width="2" stroke-linecap="round" stroke-linejoin="round"/>
</svg>
