<svg width="133" height="132" viewBox="0 0 133 132" fill="none" xmlns="http://www.w3.org/2000/svg">
<g filter="url(#filter0_d_518_3511)">
<rect x="30.5" y="20" width="72" height="72" rx="36" fill="#BFE7FF"/>
</g>
<path fill-rule="evenodd" clip-rule="evenodd" d="M58.1668 71.0001C59.0872 71.0001 59.8334 71.7463 59.8334 72.6667C59.8334 73.5872 59.0872 74.3334 58.1667 74.3334H56.5001H54.8334C53.9129 74.3334 53.1667 73.5872 53.1667 72.6667C53.1667 71.7463 53.9129 71.0001 54.8334 71.0001L54.8334 56.0001V42.6667V39.3334C54.8334 38.4129 55.5796 37.6667 56.5001 37.6667C57.4206 37.6667 58.1667 38.4129 58.1667 39.3334L81.708 39.3334L76.7101 49.3333L81.7101 59.3334H58.1667L58.1668 71.0001ZM58.1667 56.0001V42.6667H76.3155L72.9834 49.3336L76.3167 56.0001H58.1667Z" fill="#0066FF"/>
<defs>
<filter id="filter0_d_518_3511" x="0.5" y="0" width="132" height="132" filterUnits="userSpaceOnUse" color-interpolation-filters="sRGB">
<feFlood flood-opacity="0" result="BackgroundImageFix"/>
<feColorMatrix in="SourceAlpha" type="matrix" values="0 0 0 0 0 0 0 0 0 0 0 0 0 0 0 0 0 0 127 0" result="hardAlpha"/>
<feOffset dy="10"/>
<feGaussianBlur stdDeviation="15"/>
<feColorMatrix type="matrix" values="0 0 0 0 0.35 0 0 0 0 0.665 0 0 0 0 0.8 0 0 0 0.24 0"/>
<feBlend mode="normal" in2="BackgroundImageFix" result="effect1_dropShadow_518_3511"/>
<feBlend mode="normal" in="SourceGraphic" in2="effect1_dropShadow_518_3511" result="shape"/>
</filter>
</defs>
</svg>
