<svg width="25" height="24" viewBox="0 0 25 24" fill="none" xmlns="http://www.w3.org/2000/svg">
<path d="M10.61 11.15H7.95999C7.32999 11.15 6.82001 11.66 6.82001 12.29V17.41H10.61V11.15V11.15Z" stroke="#AAB2BE" stroke-width="1.5" stroke-miterlimit="10" stroke-linecap="round" stroke-linejoin="round"/>
<path d="M13.2613 6.59998H11.7412C11.1112 6.59998 10.6013 7.10999 10.6013 7.73999V17.4H14.3913V7.73999C14.3913 7.10999 13.8913 6.59998 13.2613 6.59998Z" stroke="#AAB2BE" stroke-width="1.5" stroke-miterlimit="10" stroke-linecap="round" stroke-linejoin="round"/>
<path d="M17.0481 12.85H14.3981V17.4H18.1881V13.99C18.1781 13.36 17.6681 12.85 17.0481 12.85Z" stroke="#AAB2BE" stroke-width="1.5" stroke-miterlimit="10" stroke-linecap="round" stroke-linejoin="round"/>
<path d="M9.5 22H15.5C20.5 22 22.5 20 22.5 15V9C22.5 4 20.5 2 15.5 2H9.5C4.5 2 2.5 4 2.5 9V15C2.5 20 4.5 22 9.5 22Z" stroke="#AAB2BE" stroke-width="1.5" stroke-linecap="round" stroke-linejoin="round"/>
</svg>
