<svg width="51" height="50" viewBox="0 0 51 50" fill="none" xmlns="http://www.w3.org/2000/svg">
<circle cx="25.5" cy="25" r="25" fill="white"/>
<path d="M22.375 27.1875C22.375 28.4 23.3125 29.375 24.4625 29.375H26.8125C27.8125 29.375 28.625 28.525 28.625 27.4625C28.625 26.325 28.125 25.9125 27.3875 25.65L23.625 24.3375C22.8875 24.075 22.3875 23.675 22.3875 22.525C22.3875 21.475 23.2 20.6125 24.2 20.6125H26.55C27.7 20.6125 28.6375 21.5875 28.6375 22.8" stroke="#0066FF" stroke-width="1.5" stroke-linecap="round" stroke-linejoin="round"/>
<path d="M25.5 19.375V30.625" stroke="#0066FF" stroke-width="1.5" stroke-linecap="round" stroke-linejoin="round"/>
<path d="M13 25C13 18.1 18.6 12.5 25.5 12.5" stroke="#0066FF" stroke-width="1.5" stroke-linecap="round" stroke-linejoin="round"/>
<path d="M38.3685 25.3741C38.162 32.271 32.3969 37.7009 25.5 37.4944" stroke="#0066FF" stroke-width="1.5" stroke-linecap="round" stroke-linejoin="round"/>
<path d="M38 17.5V12.5H33" stroke="#0066FF" stroke-width="1.5" stroke-linecap="round" stroke-linejoin="round"/>
<path d="M31.75 18.75L38 12.5" stroke="#0066FF" stroke-width="1.5" stroke-linecap="round" stroke-linejoin="round"/>
<path d="M13 32.5L13 37.5L18 37.5" stroke="#0066FF" stroke-width="1.5" stroke-linecap="round" stroke-linejoin="round"/>
<path d="M19.25 31.25L13 37.5" stroke="#0066FF" stroke-width="1.5" stroke-linecap="round" stroke-linejoin="round"/>
</svg>
