<svg width="14" height="16" viewBox="0 0 14 16" fill="none" xmlns="http://www.w3.org/2000/svg">
<path d="M10.3614 0.290894C10.3614 0.351152 10.3669 1.885 10.3669 1.94526C10.3447 3.73109 8.80299 5.1992 6.96633 5.17181C5.14081 5.1499 3.62139 3.63249 3.63808 1.85213C3.63808 1.82474 3.63808 1.79735 3.64365 1.76996H0.187389C0.187389 1.83022 0.181824 1.89048 0.181824 1.95073C0.198521 5.52788 3.00917 8.4148 6.71588 8.66131C10.0775 8.88591 13.4169 6.26741 13.7564 2.86009C13.7898 2.49854 13.8176 0.657921 13.8399 0.290894H10.3614Z" fill="white"/>
<path d="M13.5393 7.75195C14.3408 9.68569 13.4614 11.6085 11.4689 12.3918C10.0386 12.9561 8.5748 13.4436 7.12774 13.964C5.43022 14.5721 3.73826 15.1856 2.04074 15.7937C1.82925 15.8704 1.60662 15.9087 1.39513 15.9635C0.710557 14.2325 1.39513 12.2549 3.10378 11.5811C6.53221 10.239 10.0163 9.03929 13.5393 7.75195Z" fill="white"/>
</svg>
